PathFileType	4	(X/Y/Z)	Walk7.trc
DataRate	CameraRate	NumFrames	NumMarkers	Units	OrigDataRate	OrigDataStartFrame	OrigNumFrames
200.000000	200.000000	4	60	mm	200.000000	521	814
Frame#	Times		RCAR		LToe		RWRU		RACR1		LUA1		LFA1		LASI		RFHD		LElbow		RLFC		RFA1		RTH3		LLFC		STRN		LCAR		LWRR		LACR1		RTB2		RToe		RWRR		RMT5		RMT1		LWRU		RMFC		RTH2		C7		RTB3		RPSI		LPSI		RCAL		RTB1		LTH3		LTB1		LTB4		LTH1		LTH4		RTB4		CLAV		LMT1		LMFC		RASI		RMMAL		RLMAL		LTH2		RBHD		LBHD		LTB2		LTB3		RElbow		RTH4		RUA1		LMMAL		RBack		LCAL		T10		RTH1		LMT5		LElbowM		RElbowM		LLMAL
			X1	Y1	Z1	X2	Y2	Z2	X3	Y3	Z3	X4	Y4	Z4	X5	Y5	Z5	X6	Y6	Z6	X7	Y7	Z7	X8	Y8	Z8	X9	Y9	Z9	X10	Y10	Z10	X11	Y11	Z11	X12	Y12	Z12	X13	Y13	Z13	X14	Y14	Z14	X15	Y15	Z15	X16	Y16	Z16	X17	Y17	Z17	X18	Y18	Z18	X19	Y19	Z19	X20	Y20	Z20	X21	Y21	Z21	X22	Y22	Z22	X23	Y23	Z23	X24	Y24	Z24	X25	Y25	Z25	X26	Y26	Z26	X27	Y27	Z27	X28	Y28	Z28	X29	Y29	Z29	X30	Y30	Z30	X31	Y31	Z31	X32	Y32	Z32	X33	Y33	Z33	X34	Y34	Z34	X35	Y35	Z35	X36	Y36	Z36	X37	Y37	Z37	X38	Y38	Z38	X39	Y39	Z39	X40	Y40	Z40	X41	Y41	Z41	X42	Y42	Z42	X43	Y43	Z43	X44	Y44	Z44	X45	Y45	Z45	X46	Y46	Z46	X47	Y47	Z47	X48	Y48	Z48	X49	Y49	Z49	X50	Y50	Z50	X51	Y51	Z51	X52	Y52	Z52	X53	Y53	Z53	X54	Y54	Z54	X55	Y55	Z55	X56	Y56	Z56	X57	Y57	Z57	X58	Y58	Z58	X59	Y59	Z59	X60	Y60	Z60

521	2.605	-213.08	877.69	323.34	-212.95	31.986	-90.224	-207.45	914.42	258.13	-260.19	1511	157.67	-274.99	1360.4	-297.81	-195.56	1076.6	-349.93	-248.24	1040.6	-193.87	-100.11	1683.4	41.493	-299.27	1192.3	-352.74	-184.49	547.1	163	-262.66	1051.2	287.69	-231.53	665.97	170.46	-384.92	508.03	-190.04	-159.42	1300.2	-38.13	-121.59	927.13	-357.72	-132.45	961.7	-299.89	-271.46	1541.3	-212.19	-188.09	311.28	138.56	-83.088	71.788	92.654	-274.71	910.07	315.47	-177.37	61.98	156.97	-129.64	80.664	73.973	-199.61	944.84	-363.14	-195.35	530.56	17.681	-215.97	769.47	178.95	-370.46	1577.4	-17.808	-209.48	230.69	72.709	-473.32	1086.9	12.886	-470.67	1098.5	-96.259	-348.29	89.294	68.055	-159.34	396.1	82.147	-347.52	654.2	-214.25	-356.67	362.32	-80.206	-369.9	278.5	-72.333	-338.47	825.65	-244.76	-343.34	739.6	-230.59	-185.05	312.83	77.093	-211.51	1475.1	-41.994	-267.67	45.391	-69.441	-379.46	508.23	-47.519	-257.88	1052.2	124.05	-247.89	141.36	25.425	-288.75	119.1	115.65	-284.18	739.56	-222.11	-269.85	1707.4	56.891	-263.65	1708.2	-85.969	-349.07	270.14	-132.37	-379.37	193.36	-65.785	-350	1180.2	280.9	-274.95	741.64	179.42	-294.57	1334.3	232.86	-406.06	96.772	-21.635	-433.82	1463.5	100.72	-494.13	42.965	-74.837	-444.85	1224.4	-43.231	-307.44	821.25	182.43	-317.55	27.896	-156.14	-335.19	1159.9	-270.64	-381.8	1153.8	191.35	-431.06	67.633	-119.56
522	2.61	-209.03	877.2	323.23	-212.85	31.94	-90.294	-203.43	913.95	258.03	-255.82	1510.5	157.78	-270.09	1360.1	-297.72	-189.62	1076.6	-349.35	-243.53	1040.1	-193.89	-95.781	1683.2	41.746	-293.77	1191.9	-352.64	-178.64	546.59	163.25	-258.56	1050.7	287.68	-226.38	665.71	170.75	-382.47	507.84	-189.84	-154.92	1299.8	-38.076	-114.96	927.45	-356.69	-126.15	962.11	-298.99	-266.97	1541	-212.09	-176.76	310.68	138.76	-65.89	73.973	92.465	-270.65	909.63	315.43	-159.82	61.927	157.04	-112.71	81.605	74.014	-193.04	944.81	-362.39	-189.55	530.07	17.82	-210.99	769.21	179.5	-366.03	1576.9	-17.717	-196.25	229.61	72.927	-468.57	1086.4	12.956	-465.96	1098.1	-96.153	-331.53	84.708	68.585	-150.26	396.19	82.343	-344.26	653.86	-214.04	-354.92	361.92	-80.146	-368.6	278.18	-72.258	-334.35	825.2	-244.55	-339.64	739.22	-230.4	-173.87	312.32	77.266	-207.01	1474.8	-41.877	-267.6	45.38	-69.398	-377.02	508.05	-47.322	-253.14	1051.7	124.32	-232.54	139.32	25.745	-272.61	116	116.05	-280.56	738.95	-221.7	-265.56	1707	57.098	-259.32	1707.9	-85.768	-347.93	269.75	-132.32	-378.59	193.12	-65.713	-345.84	1179.8	280.94	-269.97	741.07	179.78	-290.32	1333.9	232.95	-405.84	96.644	-21.601	-429.42	1463	100.7	-494.1	43.034	-74.805	-440.13	1223.9	-43.183	-302.57	820.87	182.77	-317.59	27.801	-156.23	-329.83	1159.4	-270.62	-377.61	1153.4	191.38	-430.99	67.708	-119.51
523	2.615	-204.98	876.67	323.16	-212.74	31.888	-90.357	-199.39	913.43	257.95	-251.45	1510.1	157.91	-265.2	1359.8	-297.61	-183.69	1076.6	-348.75	-238.82	1039.5	-193.91	-91.443	1682.9	42.003	-288.28	1191.5	-352.51	-172.9	546	163.51	-254.43	1050.3	287.7	-221.34	665.34	171.03	-379.98	507.64	-189.63	-150.38	1299.4	-38.014	-108.37	927.73	-355.62	-119.89	962.48	-298.07	-262.48	1540.6	-211.98	-165.48	310.15	138.98	-48.839	76.336	92.216	-266.58	909.15	315.41	-142.32	62.071	157.1	-95.905	82.722	74.016	-186.5	944.75	-361.6	-183.81	529.52	17.958	-206.1	768.84	180.09	-361.59	1576.5	-17.613	-183.09	228.62	73.17	-463.79	1085.9	13.054	-461.21	1097.6	-96.016	-314.74	80.322	69.233	-141.28	396.27	82.531	-340.97	653.5	-213.82	-353.15	361.51	-80.074	-367.28	277.86	-72.18	-330.2	824.75	-244.34	-335.91	738.83	-230.2	-162.78	311.87	77.447	-202.49	1474.4	-41.749	-267.52	45.368	-69.354	-374.56	507.85	-47.117	-248.36	1051.2	124.6	-217.27	137.45	26.114	-256.47	113.09	116.52	-276.92	738.32	-221.27	-261.27	1706.6	57.314	-254.98	1707.5	-85.559	-346.78	269.35	-132.26	-377.8	192.86	-65.643	-341.67	1179.4	280.99	-265.05	740.4	180.12	-286.06	1333.4	233.04	-405.62	96.513	-21.565	-424.99	1462.5	100.69	-494.07	43.113	-74.776	-435.39	1223.4	-43.103	-297.79	820.4	183.11	-317.62	27.706	-156.32	-324.49	1158.9	-270.57	-373.38	1153	191.41	-430.91	67.779	-119.47
524	2.62	-200.93	876.1	323.13	-212.63	31.831	-90.411	-195.34	912.87	257.92	-247.06	1509.6	158.06	-260.3	1359.4	-297.49	-177.78	1076.5	-348.11	-234.1	1038.9	-193.92	-87.095	1682.6	42.263	-282.81	1191	-352.35	-167.26	545.33	163.78	-250.29	1049.7	287.72	-216.43	664.88	171.3	-377.47	507.42	-189.41	-145.81	1299	-37.943	-101.81	927.97	-354.53	-113.65	962.82	-297.11	-257.99	1540.2	-211.86	-154.26	309.69	139.2	-31.95	78.87	91.915	-262.52	908.63	315.42	-124.89	62.415	157.17	-79.235	84.012	73.988	-179.99	944.66	-360.79	-178.13	528.89	18.088	-201.31	768.36	180.7	-357.14	1575.9	-17.496	-170.01	227.75	73.441	-458.97	1085.3	13.182	-456.45	1097.1	-95.844	-297.95	76.142	70.005	-132.4	396.35	82.709	-337.65	653.13	-213.59	-351.37	361.09	-79.989	-365.95	277.53	-72.1	-326.02	824.27	-244.13	-332.14	738.42	-229.99	-151.78	311.47	77.642	-197.96	1474	-41.611	-267.45	45.355	-69.308	-372.06	507.65	-46.905	-243.53	1050.6	124.87	-202.07	135.73	26.538	-240.34	110.36	117.08	-273.25	737.68	-220.82	-256.96	1706.1	57.538	-250.64	1707.1	-85.342	-345.62	268.94	-132.2	-376.99	192.59	-65.574	-337.47	1178.9	281.04	-260.19	739.66	180.43	-281.8	1332.9	233.15	-405.38	96.38	-21.528	-420.56	1461.9	100.69	-494.04	43.202	-74.749	-430.63	1222.9	-42.992	-293.08	819.85	183.43	-317.65	27.613	-156.4	-319.15	1158.4	-270.49	-369.11	1152.4	191.45	-430.82	67.843	-119.42
